<svg xmlns="http://www.w3.org/2000/svg" viewBox="0 0 720 320" role="img" style="max-width:100%;height:auto;background:#ffffff"><text x="56.0" y="22.0" text-anchor="start" fill="#17202a" font-size="15" font-weight="bold" font-family="Arial, Helvetica, sans-serif">Seam congestion spread by year</text><text x="56.0" y="38.0" text-anchor="start" fill="#5b6673" font-size="12" font-weight="normal" font-family="Arial, Helvetica, sans-serif">$/MWh (mean hourly congestion-component spread)</text><line x1="56" y1="264.0" x2="704" y2="264.0" stroke="#d8dee6" stroke-width="1"/><text x="48.0" y="268.0" text-anchor="end" fill="#5b6673" font-size="11" font-weight="normal" font-family="Arial, Helvetica, sans-serif">0</text><line x1="56" y1="209.0" x2="704" y2="209.0" stroke="#d8dee6" stroke-width="1"/><text x="48.0" y="213.0" text-anchor="end" fill="#5b6673" font-size="11" font-weight="normal" font-family="Arial, Helvetica, sans-serif">2.5</text><line x1="56" y1="154.0" x2="704" y2="154.0" stroke="#d8dee6" stroke-width="1"/><text x="48.0" y="158.0" text-anchor="end" fill="#5b6673" font-size="11" font-weight="normal" font-family="Arial, Helvetica, sans-serif">5</text><line x1="56" y1="99.0" x2="704" y2="99.0" stroke="#d8dee6" stroke-width="1"/><text x="48.0" y="103.0" text-anchor="end" fill="#5b6673" font-size="11" font-weight="normal" font-family="Arial, Helvetica, sans-serif">7.5</text><line x1="56" y1="44.0" x2="704" y2="44.0" stroke="#d8dee6" stroke-width="1"/><text x="48.0" y="48.0" text-anchor="end" fill="#5b6673" font-size="11" font-weight="normal" font-family="Arial, Helvetica, sans-serif">10</text><text x="164.0" y="282.0" text-anchor="middle" fill="#5b6673" font-size="12" font-weight="normal" font-family="Arial, Helvetica, sans-serif">2023</text><text x="380.0" y="282.0" text-anchor="middle" fill="#5b6673" font-size="12" font-weight="normal" font-family="Arial, Helvetica, sans-serif">2024</text><text x="596.0" y="282.0" text-anchor="middle" fill="#5b6673" font-size="12" font-weight="normal" font-family="Arial, Helvetica, sans-serif">2025</text><polyline points="164.0,230.3 380.0,219.6 596.0,101.6" fill="none" stroke="#1f6feb" stroke-width="2.5"/><circle cx="164.0" cy="230.3" r="3.5" fill="#1f6feb"/><text x="164.0" y="221.3" text-anchor="middle" fill="#17202a" font-size="11" font-weight="normal" font-family="Arial, Helvetica, sans-serif">1.53</text><circle cx="380.0" cy="219.6" r="3.5" fill="#1f6feb"/><text x="380.0" y="210.6" text-anchor="middle" fill="#17202a" font-size="11" font-weight="normal" font-family="Arial, Helvetica, sans-serif">2.02</text><circle cx="596.0" cy="101.6" r="3.5" fill="#1f6feb"/><text x="596.0" y="92.6" text-anchor="middle" fill="#17202a" font-size="11" font-weight="normal" font-family="Arial, Helvetica, sans-serif">7.38</text><rect x="56" y="294" width="11" height="11" fill="#1f6feb" rx="2"/><text x="72.0" y="304.0" text-anchor="start" fill="#5b6673" font-size="12" font-weight="normal" font-family="Arial, Helvetica, sans-serif">NYIS-PJM</text><polyline points="164.0,159.7 380.0,125.2 596.0,102.7" fill="none" stroke="#1f8f5f" stroke-width="2.5"/><circle cx="164.0" cy="159.7" r="3.5" fill="#1f8f5f"/><text x="164.0" y="150.7" text-anchor="middle" fill="#17202a" font-size="11" font-weight="normal" font-family="Arial, Helvetica, sans-serif">4.74</text><circle cx="380.0" cy="125.2" r="3.5" fill="#1f8f5f"/><text x="380.0" y="116.2" text-anchor="middle" fill="#17202a" font-size="11" font-weight="normal" font-family="Arial, Helvetica, sans-serif">6.31</text><circle cx="596.0" cy="102.7" r="3.5" fill="#1f8f5f"/><text x="596.0" y="121.7" text-anchor="middle" fill="#17202a" font-size="11" font-weight="normal" font-family="Arial, Helvetica, sans-serif">7.33</text><rect x="152" y="294" width="11" height="11" fill="#1f8f5f" rx="2"/><text x="168.0" y="304.0" text-anchor="start" fill="#5b6673" font-size="12" font-weight="normal" font-family="Arial, Helvetica, sans-serif">MISO-SWPP</text><polyline points="164.0,234.3 380.0,230.3 596.0,218.0" fill="none" stroke="#b45309" stroke-width="2.5"/><circle cx="164.0" cy="234.3" r="3.5" fill="#b45309"/><text x="164.0" y="253.3" text-anchor="middle" fill="#17202a" font-size="11" font-weight="normal" font-family="Arial, Helvetica, sans-serif">1.35</text><circle cx="380.0" cy="230.3" r="3.5" fill="#b45309"/><text x="380.0" y="249.3" text-anchor="middle" fill="#17202a" font-size="11" font-weight="normal" font-family="Arial, Helvetica, sans-serif">1.53</text><circle cx="596.0" cy="218.0" r="3.5" fill="#b45309"/><text x="596.0" y="209.0" text-anchor="middle" fill="#17202a" font-size="11" font-weight="normal" font-family="Arial, Helvetica, sans-serif">2.09</text><rect x="255" y="294" width="11" height="11" fill="#b45309" rx="2"/><text x="271.0" y="304.0" text-anchor="start" fill="#5b6673" font-size="12" font-weight="normal" font-family="Arial, Helvetica, sans-serif">MISO-SOCO</text><polyline points="164.0,155.3 596.0,136.8" fill="none" stroke="#7c3aed" stroke-width="2.5"/><circle cx="164.0" cy="155.3" r="3.5" fill="#7c3aed"/><text x="164.0" y="174.3" text-anchor="middle" fill="#17202a" font-size="11" font-weight="normal" font-family="Arial, Helvetica, sans-serif">4.94</text><circle cx="596.0" cy="136.8" r="3.5" fill="#7c3aed"/><text x="596.0" y="155.8" text-anchor="middle" fill="#17202a" font-size="11" font-weight="normal" font-family="Arial, Helvetica, sans-serif">5.78</text><rect x="358" y="294" width="11" height="11" fill="#7c3aed" rx="2"/><text x="374.0" y="304.0" text-anchor="start" fill="#5b6673" font-size="12" font-weight="normal" font-family="Arial, Helvetica, sans-serif">ERCO West-North hubs</text></svg>